ClarityCity-Light Italic.ufo
<glyph name="percent" format="1">
  <advance width="812"/>
  <unicode hex="0025"/>
  <outline>
    <contour>
      <point x="93" y="0" type="line"/>
      <point x="142" y="0" type="line"/>
      <point x="755" y="687" type="line"/>
      <point x="706" y="687" type="line"/>
    </contour>
    <contour>
      <point x="542" y="-10" type="curve" smooth="yes"/>
      <point x="647" y="-10"/>
      <point x="727" y="97"/>
      <point x="727" y="206" type="curve" smooth="yes"/>
      <point x="727" y="283"/>
      <point x="682" y="334"/>
      <point x="609" y="334" type="curve" smooth="yes"/>
      <point x="503" y="334"/>
      <point x="426" y="228"/>
      <point x="426" y="117" type="curve" smooth="yes"/>
      <point x="426" y="40"/>
      <point x="470" y="-10"/>
    </contour>
    <contour>
      <point x="545" y="26" type="curve" smooth="yes"/>
      <point x="493" y="26"/>
      <point x="462" y="64"/>
      <point x="462" y="121" type="curve" smooth="yes"/>
      <point x="462" y="209"/>
      <point x="523" y="298"/>
      <point x="606" y="298" type="curve" smooth="yes"/>
      <point x="659" y="298"/>
      <point x="691" y="260"/>
      <point x="691" y="202" type="curve" smooth="yes"/>
      <point x="691" y="119"/>
      <point x="630" y="26"/>
    </contour>
    <contour>
      <point x="235" y="349" type="curve" smooth="yes"/>
      <point x="341" y="349"/>
      <point x="420" y="458"/>
      <point x="420" y="565" type="curve" smooth="yes"/>
      <point x="420" y="635"/>
      <point x="380" y="693"/>
      <point x="302" y="693" type="curve" smooth="yes"/>
      <point x="197" y="693"/>
      <point x="118" y="585"/>
      <point x="118" y="476" type="curve" smooth="yes"/>
      <point x="118" y="399"/>
      <point x="163" y="349"/>
    </contour>
    <contour>
      <point x="238" y="385" type="curve" smooth="yes"/>
      <point x="186" y="385"/>
      <point x="154" y="423"/>
      <point x="154" y="480" type="curve" smooth="yes"/>
      <point x="154" y="563"/>
      <point x="215" y="657"/>
      <point x="299" y="657" type="curve" smooth="yes"/>
      <point x="355" y="657"/>
      <point x="383" y="615"/>
      <point x="383" y="560" type="curve" smooth="yes"/>
      <point x="383" y="477"/>
      <point x="322" y="385"/>
    </contour>
  </outline>
</glyph>
<glyph name="quotesingle" format="1">
  <advance width="278"/>
  <unicode hex="0027"/>
  <outline>
    <contour>
      <point x="166" y="456" type="curve"/>
      <point x="194" y="456" type="line"/>
      <point x="238" y="593"/>
      <point x="244" y="609"/>
      <point x="244" y="622" type="curve" smooth="yes"/>
      <point x="244" y="636"/>
      <point x="234" y="646"/>
      <point x="220" y="646" type="curve" smooth="yes"/>
      <point x="180" y="646"/>
      <point x="180" y="600"/>
      <point x="174" y="544" type="curve" smooth="yes"/>
      <point x="172" y="515"/>
      <point x="169" y="484"/>
    </contour>
  </outline>
</glyph>
<glyph name="parenright" format="1">
  <advance width="294"/>
  <unicode hex="0029"/>
  <outline>
    <contour>
      <point x="-45" y="-171" type="line"/>
      <point x="117" y="-35"/>
      <point x="251" y="161"/>
      <point x="251" y="360" type="curve" smooth="yes"/>
      <point x="251" y="478"/>
      <point x="210" y="599"/>
      <point x="134" y="699" type="curve"/>
      <point x="105" y="675" type="line"/>
      <point x="177" y="582"/>
      <point x="215" y="469"/>
      <point x="215" y="360" type="curve" smooth="yes"/>
      <point x="215" y="172"/>
      <point x="90" y="-11"/>
      <point x="-66" y="-142" type="curve"/>
    </contour>
  </outline>
</glyph>
<glyph name="asterisk" format="1">
  <advance width="448"/>
  <unicode hex="002A"/>
  <outline>
    <contour>
      <point x="254" y="404" type="curve" smooth="yes"/>
      <point x="264" y="404"/>
      <point x="274" y="412"/>
      <point x="276" y="421" type="curve" smooth="yes"/>
      <point x="282" y="452"/>
      <point x="282" y="489"/>
      <point x="286" y="529" type="curve"/>
      <point x="315" y="505"/>
      <point x="338" y="480"/>
      <point x="360" y="464" type="curve" smooth="yes"/>
      <point x="367" y="459"/>
      <point x="380" y="463"/>
      <point x="385" y="471" type="curve" smooth="yes"/>
      <point x="393" y="480"/>
      <point x="392" y="491"/>
      <point x="384" y="495" type="curve" smooth="yes"/>
      <point x="360" y="509"/>
      <point x="328" y="522"/>
      <point x="295" y="539" type="curve"/>
      <point x="335" y="556"/>
      <point x="374" y="567"/>
      <point x="403" y="583" type="curve" smooth="yes"/>
      <point x="412" y="588"/>
      <point x="418" y="598"/>
      <point x="414" y="607" type="curve" smooth="yes"/>
      <point x="411" y="615"/>
      <point x="400" y="618"/>
      <point x="391" y="614" type="curve" smooth="yes"/>
      <point x="361" y="600"/>
      <point x="329" y="573"/>
      <point x="291" y="549" type="curve"/>
      <point x="303" y="589"/>
      <point x="319" y="626"/>
      <point x="325" y="657" type="curve" smooth="yes"/>
      <point x="327" y="666"/>
      <point x="321" y="674"/>
      <point x="311" y="674" type="curve" smooth="yes"/>
      <point x="301" y="674"/>
      <point x="291" y="666"/>
      <point x="289" y="657" type="curve" smooth="yes"/>
      <point x="283" y="626"/>
      <point x="283" y="589"/>
      <point x="279" y="549" type="curve"/>
      <point x="251" y="573"/>
      <point x="228" y="598"/>
      <point x="205" y="614" type="curve" smooth="yes"/>
      <point x="198" y="619"/>
      <point x="186" y="615"/>
      <point x="180" y="607" type="curve" smooth="yes"/>
      <point x="173" y="598"/>
      <point x="175" y="587"/>
      <point x="181" y="583" type="curve" smooth="yes"/>
      <point x="206" y="569"/>
      <point x="237" y="556"/>
      <point x="271" y="539" type="curve"/>
      <point x="230" y="522"/>
      <point x="192" y="511"/>
      <point x="162" y="495" type="curve" smooth="yes"/>
      <point x="153" y="490"/>
      <point x="148" y="480"/>
      <point x="151" y="471" type="curve" smooth="yes"/>
      <point x="155" y="463"/>
      <point x="166" y="460"/>
      <point x="174" y="464" type="curve" smooth="yes"/>
      <point x="205" y="478"/>
      <point x="237" y="505"/>
      <point x="274" y="529" type="curve"/>
      <point x="262" y="489"/>
      <point x="246" y="452"/>
      <point x="240" y="421" type="curve" smooth="yes"/>
      <point x="238" y="412"/>
      <point x="244" y="404"/>
    </contour>
  </outline>
</glyph>
<glyph name="plus" format="1">
  <advance width="566"/>
  <unicode hex="002B"/>
  <outline>
    <contour>
      <point x="65" y="316" type="line"/>
      <point x="524" y="316" type="line"/>
      <point x="532" y="352" type="line"/>
      <point x="73" y="352" type="line"/>
    </contour>
    <contour>
      <point x="233" y="105" type="line"/>
      <point x="269" y="105" type="line"/>
      <point x="365" y="564" type="line"/>
      <point x="329" y="564" type="line"/>
    </contour>
  </outline>
</glyph>
<glyph name="comma" format="1">
  <advance width="314"/>
  <unicode hex="002C"/>
  <outline>
    <contour>
      <point x="61" y="-124" type="line"/>
      <point x="117" y="-65"/>
      <point x="146" y="-17"/>
      <point x="146" y="18" type="curve" smooth="yes"/>
      <point x="146" y="37"/>
      <point x="135" y="48"/>
      <point x="118" y="48" type="curve" smooth="yes"/>
      <point x="99" y="48"/>
      <point x="84" y="32"/>
      <point x="84" y="13" type="curve" smooth="yes"/>
      <point x="84" y="-2"/>
      <point x="94" y="-11"/>
      <point x="110" y="-11" type="curve"/>
      <point x="96" y="-39"/>
      <point x="69" y="-73"/>
      <point x="37" y="-103" type="curve"/>
    </contour>
  </outline>
</glyph>
<glyph name="period" format="1">
  <advance width="307"/>
  <unicode hex="002E"/>
  <outline>
    <contour>
      <point x="101" y="-12" type="curve" smooth="yes"/>
      <point x="117" y="-12"/>
      <point x="133" y="4"/>
      <point x="133" y="22" type="curve" smooth="yes"/>
      <point x="133" y="36"/>
      <point x="123" y="48"/>
      <point x="107" y="48" type="curve" smooth="yes"/>
      <point x="88" y="48"/>
      <point x="73" y="29"/>
      <point x="73" y="14" type="curve" smooth="yes"/>
      <point x="73" y="-1"/>
      <point x="84" y="-12"/>
    </contour>
  </outline>
</glyph>
<glyph name="one" format="1">
  <advance width="333"/>
  <unicode hex="0031"/>
  <outline>
    <contour>
      <point x="122" y="0" type="line"/>
      <point x="158" y="0" type="line"/>
      <point x="301" y="687" type="line"/>
      <point x="272" y="687" type="line"/>
      <point x="67" y="572" type="line"/>
      <point x="80" y="542" type="line"/>
      <point x="256" y="640" type="line"/>
    </contour>
  </outline>
</glyph>
<glyph name="four" format="1">
  <advance width="545"/>
  <unicode hex="0034"/>
  <outline>
    <contour>
      <point x="311" y="0" type="line"/>
      <point x="347" y="0" type="line"/>
      <point x="386" y="185" type="line"/>
      <point x="500" y="185" type="line"/>
      <point x="507" y="221" type="line"/>
      <point x="393" y="221" type="line"/>
      <point x="490" y="687" type="line"/>
      <point x="440" y="687" type="line"/>
      <point x="4" y="222" type="line"/>
      <point x="3" y="185" type="line"/>
      <point x="350" y="185" type="line"/>
    </contour>
    <contour>
      <point x="50" y="221" type="line"/>
      <point x="446" y="644" type="line"/>
      <point x="357" y="221" type="line"/>
    </contour>
  </outline>
</glyph>
<glyph name="five" format="1">
  <advance width="573"/>
  <unicode hex="0035"/>
  <outline>
    <contour>
      <point x="244" y="-12" type="curve" smooth="yes"/>
      <point x="377" y="-12"/>
      <point x="512" y="119"/>
      <point x="512" y="251" type="curve" smooth="yes"/>
      <point x="512" y="346"/>
      <point x="440" y="418"/>
      <point x="338" y="418" type="curve" smooth="yes"/>
      <point x="277" y="418"/>
      <point x="211" y="399"/>
      <point x="164" y="365" type="curve"/>
      <point x="232" y="651" type="line"/>
      <point x="574" y="651" type="line"/>
      <point x="581" y="687" type="line"/>
      <point x="204" y="687" type="line"/>
      <point x="124" y="341" type="line"/>
      <point x="157" y="322" type="line"/>
      <point x="213" y="359"/>
      <point x="276" y="382"/>
      <point x="329" y="382" type="curve" smooth="yes"/>
      <point x="415" y="382"/>
      <point x="476" y="322"/>
      <point x="476" y="245" type="curve" smooth="yes"/>
      <point x="476" y="137"/>
      <point x="361" y="24"/>
      <point x="246" y="24" type="curve" smooth="yes"/>
      <point x="164" y="24"/>
      <point x="90" y="60"/>
      <point x="48" y="123" type="curve"/>
      <point x="20" y="98" type="line"/>
      <point x="66" y="29"/>
      <point x="149" y="-12"/>
    </contour>
  </outline>
</glyph>
<glyph name="six" format="1">
  <advance width="595"/>
  <unicode hex="0036"/>
  <outline>
    <contour>
      <point x="258" y="-12" type="curve" smooth="yes"/>
      <point x="394" y="-12"/>
      <point x="527" y="121"/>
      <point x="527" y="255" type="curve" smooth="yes"/>
      <point x="527" y="353"/>
      <point x="454" y="429"/>
      <point x="353" y="429" type="curve" smooth="yes"/>
      <point x="235" y="429"/>
      <point x="121" y="352"/>
      <point x="101" y="259" type="curve"/>
      <point x="100" y="207" type="line"/>
      <point x="124" y="307"/>
      <point x="237" y="393"/>
      <point x="344" y="393" type="curve" smooth="yes"/>
      <point x="430" y="393"/>
      <point x="491" y="330"/>
      <point x="491" y="249" type="curve" smooth="yes"/>
      <point x="491" y="140"/>
      <point x="379" y="24"/>
      <point x="260" y="24" type="curve" smooth="yes"/>
      <point x="161" y="24"/>
      <point x="109" y="93"/>
      <point x="109" y="213" type="curve" smooth="yes"/>
      <point x="109" y="416"/>
      <point x="235" y="663"/>
      <point x="413" y="663" type="curve" smooth="yes"/>
      <point x="475" y="663"/>
      <point x="535" y="636"/>
      <point x="573" y="589" type="curve"/>
      <point x="597" y="616" type="line"/>
      <point x="553" y="668"/>
      <point x="487" y="699"/>
      <point x="417" y="699" type="curve" smooth="yes"/>
      <point x="217" y="699"/>
      <point x="74" y="439"/>
      <point x="74" y="209" type="curve" smooth="yes"/>
      <point x="74" y="68"/>
      <point x="138" y="-12"/>
    </contour>
  </outline>
</glyph>
<glyph name="eight" format="1">
  <advance width="599"/>
  <unicode hex="0038"/>
  <outline>
    <contour>
      <point x="245" y="-12" type="curve" smooth="yes"/>
      <point x="373" y="-12"/>
      <point x="514" y="85"/>
      <point x="514" y="205" type="curve" smooth="yes"/>
      <point x="514" y="272"/>
      <point x="469" y="331"/>
      <point x="398" y="353" type="curve"/>
      <point x="495" y="383"/>
      <point x="568" y="467"/>
      <point x="568" y="547" type="curve" smooth="yes"/>
      <point x="568" y="632"/>
      <point x="492" y="699"/>
      <point x="387" y="699" type="curve" smooth="yes"/>
      <point x="261" y="699"/>
      <point x="139" y="601"/>
      <point x="139" y="493" type="curve" smooth="yes"/>
      <point x="139" y="432"/>
      <point x="179" y="377"/>
      <point x="239" y="355" type="curve"/>
      <point x="143" y="328"/>
      <point x="50" y="247"/>
      <point x="50" y="148" type="curve" smooth="yes"/>
      <point x="50" y="58"/>
      <point x="132" y="-12"/>
    </contour>
    <contour>
      <point x="247" y="24" type="curve" smooth="yes"/>
      <point x="153" y="24"/>
      <point x="86" y="81"/>
      <point x="86" y="152" type="curve" smooth="yes"/>
      <point x="86" y="254"/>
      <point x="197" y="328"/>
      <point x="316" y="331" type="curve"/>
      <point x="416" y="328"/>
      <point x="479" y="279"/>
      <point x="479" y="209" type="curve" smooth="yes"/>
      <point x="479" y="112"/>
      <point x="364" y="24"/>
    </contour>
    <contour>
      <point x="319" y="373" type="curve"/>
      <point x="230" y="378"/>
      <point x="173" y="425"/>
      <point x="173" y="489" type="curve" smooth="yes"/>
      <point x="173" y="581"/>
      <point x="280" y="663"/>
      <point x="385" y="663" type="curve" smooth="yes"/>
      <point x="470" y="663"/>
      <point x="532" y="610"/>
      <point x="532" y="543" type="curve" smooth="yes"/>
      <point x="532" y="450"/>
      <point x="430" y="379"/>
    </contour>
  </outline>
</glyph>
<glyph name="less" format="1">
  <advance width="592"/>
  <unicode hex="003C"/>
  <outline>
    <contour>
      <point x="477" y="102" type="line"/>
      <point x="486" y="146" type="line"/>
      <point x="119" y="344" type="line"/>
      <point x="568" y="542" type="line"/>
      <point x="577" y="586" type="line"/>
      <point x="76" y="366" type="line"/>
      <point x="68" y="322" type="line"/>
    </contour>
  </outline>
</glyph>
<glyph name="equal" format="1">
  <advance width="758"/>
  <unicode hex="003D"/>
  <outline>
    <contour>
      <point x="184" y="426" type="line"/>
      <point x="643" y="426" type="line"/>
      <point x="651" y="462" type="line"/>
      <point x="192" y="462" type="line"/>
    </contour>
    <contour>
      <point x="138" y="206" type="line"/>
      <point x="597" y="206" type="line"/>
      <point x="605" y="242" type="line"/>
      <point x="146" y="242" type="line"/>
    </contour>
  </outline>
</glyph>
<glyph name="question" format="1">
  <advance width="482"/>
  <unicode hex="003F"/>
  <outline>
    <contour>
      <point x="186" y="193" type="line"/>
      <point x="225" y="193" type="line"/>
      <point x="252" y="326" type="line"/>
      <point x="376" y="347"/>
      <point x="493" y="432"/>
      <point x="493" y="547" type="curve" smooth="yes"/>
      <point x="493" y="632"/>
      <point x="427" y="699"/>
      <point x="335" y="699" type="curve" smooth="yes"/>
      <point x="247" y="699"/>
      <point x="166" y="662"/>
      <point x="88" y="585" type="curve"/>
      <point x="111" y="558" type="line"/>
      <point x="175" y="628"/>
      <point x="248" y="663"/>
      <point x="331" y="663" type="curve" smooth="yes"/>
      <point x="405" y="663"/>
      <point x="456" y="611"/>
      <point x="456" y="543" type="curve" smooth="yes"/>
      <point x="456" y="447"/>
      <point x="351" y="366"/>
      <point x="219" y="356" type="curve"/>
    </contour>
    <component base="period" xOffset="64"/>
  </outline>
</glyph>
<glyph name="at" format="1">
  <advance width="948"/>
  <unicode hex="0040"/>
  <outline>
    <contour>
      <point x="388" y="-116" type="curve" smooth="yes"/>
      <point x="470" y="-116"/>
      <point x="556" y="-92"/>
      <point x="639" y="-47" type="curve"/>
      <point x="626" y="-20" type="line"/>
      <point x="551" y="-60"/>
      <point x="473" y="-81"/>
      <point x="398" y="-81" type="curve" smooth="yes"/>
      <point x="237" y="-81"/>
      <point x="116" y="36"/>
      <point x="116" y="193" type="curve" smooth="yes"/>
      <point x="116" y="448"/>
      <point x="314" y="639"/>
      <point x="579" y="639" type="curve" smooth="yes"/>
      <point x="740" y="639"/>
      <point x="860" y="527"/>
      <point x="860" y="378" type="curve" smooth="yes"/>
      <point x="860" y="269"/>
      <point x="783" y="114"/>
      <point x="682" y="114" type="curve" smooth="yes"/>
      <point x="643" y="114"/>
      <point x="615" y="136"/>
      <point x="615" y="173" type="curve" smooth="yes"/>
      <point x="615" y="210"/>
      <point x="681" y="360"/>
      <point x="734" y="481" type="curve"/>
      <point x="695" y="486" type="line"/>
      <point x="667" y="420" type="line"/>
      <point x="654" y="463"/>
      <point x="612" y="501"/>
      <point x="541" y="501" type="curve" smooth="yes"/>
      <point x="402" y="501"/>
      <point x="266" y="345"/>
      <point x="266" y="206" type="curve" smooth="yes"/>
      <point x="266" y="129"/>
      <point x="312" y="78"/>
      <point x="388" y="78" type="curve" smooth="yes"/>
      <point x="457" y="78"/>
      <point x="527" y="116"/>
      <point x="574" y="164" type="curve"/>
      <point x="573" y="110"/>
      <point x="608" y="78"/>
      <point x="665" y="78" type="curve" smooth="yes"/>
      <point x="800" y="78"/>
      <point x="897" y="243"/>
      <point x="897" y="385" type="curve" smooth="yes"/>
      <point x="897" y="551"/>
      <point x="765" y="675"/>
      <point x="589" y="675" type="curve" smooth="yes"/>
      <point x="296" y="675"/>
      <point x="77" y="466"/>
      <point x="77" y="187" type="curve" smooth="yes"/>
      <point x="77" y="14"/>
      <point x="210" y="-116"/>
    </contour>
    <contour>
      <point x="404" y="114" type="curve" smooth="yes"/>
      <point x="342" y="114"/>
      <point x="304" y="155"/>
      <point x="304" y="217" type="curve" smooth="yes"/>
      <point x="304" y="333"/>
      <point x="417" y="465"/>
      <point x="537" y="465" type="curve" smooth="yes"/>
      <point x="599" y="465"/>
      <point x="633" y="428"/>
      <point x="633" y="371" type="curve" smooth="yes"/>
      <point x="633" y="259"/>
      <point x="520" y="114"/>
    </contour>
  </outline>
</glyph>
<glyph name="A" format="1">
  <advance width="676"/>
  <unicode hex="0041"/>
  <outline>
    <contour>
      <point x="97" y="175" type="line"/>
      <point x="536" y="175" type="line"/>
      <point x="543" y="211" type="line"/>
      <point x="104" y="211" type="line"/>
    </contour>
    <component base="V" xScale="-1" yScale="-1" xOffset="711" yOffset="687"/>
    <contour>
      <point x="607" y="0" type="move" name="bottom"/>
    </contour>
    <contour>
      <point x="427" y="687" type="move" name="top"/>
    </contour>
  </outline>
</glyph>
<glyph name="B" format="1">
  <advance width="705"/>
  <unicode hex="0042"/>
  <outline>
    <contour>
      <point x="72" y="0" type="line"/>
      <point x="373" y="0" type="line" smooth="yes"/>
      <point x="503" y="0"/>
      <point x="618" y="99"/>
      <point x="618" y="221" type="curve" smooth="yes"/>
      <point x="618" y="284"/>
      <point x="583" y="338"/>
      <point x="527" y="357" type="curve"/>
      <point x="601" y="381"/>
      <point x="659" y="471"/>
      <point x="659" y="550" type="curve" smooth="yes"/>
      <point x="659" y="632"/>
      <point x="598" y="687"/>
      <point x="501" y="687" type="curve" smooth="yes"/>
      <point x="215" y="687" type="line"/>
    </contour>
    <contour>
      <point x="116" y="36" type="line"/>
      <point x="179" y="340" type="line"/>
      <point x="444" y="340" type="line" smooth="yes"/>
      <point x="530" y="340"/>
      <point x="582" y="293"/>
      <point x="582" y="223" type="curve" smooth="yes"/>
      <point x="582" y="120"/>
      <point x="489" y="36"/>
      <point x="377" y="36" type="curve" smooth="yes"/>
    </contour>
    <contour>
      <point x="187" y="376" type="line"/>
      <point x="244" y="651" type="line"/>
      <point x="496" y="651" type="line" smooth="yes"/>
      <point x="574" y="651"/>
      <point x="623" y="609"/>
      <point x="623" y="548" type="curve" smooth="yes"/>
      <point x="623" y="458"/>
      <point x="545" y="376"/>
      <point x="448" y="376" type="curve" smooth="yes"/>
    </contour>
  </outline>
</glyph>
<glyph name="E" format="1">
  <advance width="632"/>
  <unicode hex="0045"/>
  <outline>
    <contour>
      <point x="72" y="0" type="line"/>
      <point x="523" y="0" type="line"/>
      <point x="531" y="36" type="line"/>
      <point x="107" y="36" type="line"/>
      <point x="114" y="26" type="line"/>
      <point x="179" y="342" type="line"/>
      <point x="168" y="332" type="line"/>
      <point x="562" y="332" type="line"/>
      <point x="569" y="368" type="line"/>
      <point x="177" y="368" type="line"/>
      <point x="183" y="358" type="line"/>
      <point x="245" y="661" type="line"/>
      <point x="234" y="651" type="line"/>
      <point x="659" y="651" type="line"/>
      <point x="666" y="687" type="line"/>
      <point x="215" y="687" type="line"/>
    </contour>
    <contour>
      <point x="215" y="687" type="move" name="ae_upper"/>
    </contour>
    <contour>
      <point x="523" y="0" type="move" name="bottom"/>
    </contour>
    <contour>
      <point x="443" y="687" type="move" name="top"/>
    </contour>
  </outline>
</glyph>
<glyph name="G" format="1">
  <advance width="761"/>
  <unicode hex="0047"/>
  <outline>
    <contour>
      <point x="357" y="-12" type="curve" smooth="yes"/>
      <point x="457" y="-12"/>
      <point x="559" y="27"/>
      <point x="641" y="90" type="curve"/>
      <point x="619" y="117" type="line"/>
      <point x="545" y="60"/>
      <point x="452" y="24"/>
      <point x="359" y="24" type="curve" smooth="yes"/>
      <point x="209" y="24"/>
      <point x="105" y="135"/>
      <point x="105" y="279" type="curve" smooth="yes"/>
      <point x="105" y="475"/>
      <point x="301" y="663"/>
      <point x="497" y="663" type="curve" smooth="yes"/>
      <point x="588" y="663"/>
      <point x="665" y="629"/>
      <point x="716" y="572" type="curve"/>
      <point x="745" y="596" type="line"/>
      <point x="688" y="659"/>
      <point x="602" y="699"/>
      <point x="499" y="699" type="curve" smooth="yes"/>
      <point x="282" y="699"/>
      <point x="69" y="492"/>
      <point x="69" y="275" type="curve" smooth="yes"/>
      <point x="69" y="113"/>
      <point x="188" y="-12"/>
    </contour>
    <contour>
      <point x="605" y="90" type="line"/>
      <point x="641" y="90" type="line"/>
      <point x="693" y="340" type="line"/>
      <point x="418" y="340" type="line"/>
      <point x="411" y="304" type="line"/>
      <point x="664" y="304" type="line"/>
      <point x="653" y="324" type="line"/>
    </contour>
    <contour>
      <point x="357" y="0" type="move" name="bottom"/>
    </contour>
    <contour>
      <point x="497" y="687" type="move" name="top"/>
    </contour>
  </outline>
</glyph>
<glyph name="H" format="1">
  <advance width="771"/>
  <unicode hex="0048"/>
  <outline>
    <contour>
      <point x="72" y="0" type="line"/>
      <point x="108" y="0" type="line"/>
      <point x="180" y="343" type="line"/>
      <point x="176" y="332" type="line"/>
      <point x="625" y="332" type="line"/>
      <point x="627" y="343" type="line"/>
      <point x="555" y="0" type="line"/>
      <point x="591" y="0" type="line"/>
      <point x="734" y="687" type="line"/>
      <point x="698" y="687" type="line"/>
      <point x="630" y="357" type="line"/>
      <point x="633" y="368" type="line"/>
      <point x="184" y="368" type="line"/>
      <point x="183" y="357" type="line"/>
      <point x="251" y="687" type="line"/>
      <point x="215" y="687" type="line"/>
    </contour>
  </outline>
</glyph>
<glyph name="I" format="1">
  <advance width="288"/>
  <unicode hex="0049"/>
  <outline>
    <contour>
      <point x="72" y="0" type="line"/>
      <point x="108" y="0" type="line"/>
      <point x="251" y="687" type="line"/>
      <point x="215" y="687" type="line"/>
    </contour>
    <contour>
      <point x="108" y="0" type="move" name="bottom"/>
    </contour>
    <contour>
      <point x="233" y="687" type="move" name="top"/>
    </contour>
  </outline>
</glyph>
<glyph name="L" format="1">
  <advance width="560"/>
  <unicode hex="004C"/>
  <outline>
    <contour>
      <point x="72" y="0" type="line"/>
      <point x="504" y="0" type="line"/>
      <point x="512" y="36" type="line"/>
      <point x="105" y="36" type="line"/>
      <point x="114" y="24" type="line"/>
      <point x="251" y="687" type="line"/>
      <point x="215" y="687" type="line"/>
    </contour>
    <contour>
      <point x="233" y="687" type="move" name="top"/>
    </contour>
  </outline>
</glyph>
<glyph name="M" format="1">
  <advance width="876"/>
  <unicode hex="004D"/>
  <outline>
    <contour>
      <point x="72" y="0" type="line"/>
      <point x="108" y="0" type="line"/>
      <point x="237" y="615" type="line"/>
      <point x="406" y="96" type="line"/>
      <point x="789" y="615" type="line"/>
      <point x="660" y="0" type="line"/>
      <point x="696" y="0" type="line"/>
      <point x="839" y="687" type="line"/>
      <point x="803" y="687" type="line"/>
      <point x="418" y="168" type="line"/>
      <point x="251" y="687" type="line"/>
      <point x="215" y="687" type="line"/>
    </contour>
  </outline>
</glyph>
<glyph name="N" format="1">
  <advance width="792"/>
  <unicode hex="004E"/>
  <outline>
    <contour>
      <point x="72" y="0" type="line"/>
      <point x="108" y="0" type="line"/>
      <point x="240" y="631" type="line"/>
      <point x="577" y="0" type="line"/>
      <point x="612" y="0" type="line"/>
      <point x="755" y="687" type="line"/>
      <point x="719" y="687" type="line"/>
      <point x="588" y="56" type="line"/>
      <point x="251" y="687" type="line"/>
      <point x="215" y="687" type="line"/>
    </contour>
    <contour>
      <point x="343" y="0" type="move" name="bottom"/>
    </contour>
    <contour>
      <point x="485" y="687" type="move" name="top"/>
    </contour>
  </outline>
</glyph>
<glyph name="P" format="1">
  <advance width="691"/>
  <unicode hex="0050"/>
  <outline>
    <contour>
      <point x="72" y="0" type="line"/>
      <point x="108" y="0" type="line"/>
      <point x="164" y="267" type="line"/>
      <point x="418" y="267" type="line" smooth="yes"/>
      <point x="571" y="267"/>
      <point x="703" y="375"/>
      <point x="703" y="519" type="curve" smooth="yes"/>
      <point x="703" y="619"/>
      <point x="625" y="687"/>
      <point x="503" y="687" type="curve" smooth="yes"/>
      <point x="215" y="687" type="line"/>
    </contour>
    <contour>
      <point x="171" y="303" type="line"/>
      <point x="244" y="651" type="line"/>
      <point x="491" y="651" type="line" smooth="yes"/>
      <point x="599" y="651"/>
      <point x="667" y="596"/>
      <point x="667" y="514" type="curve" smooth="yes"/>
      <point x="667" y="395"/>
      <point x="550" y="303"/>
      <point x="416" y="303" type="curve" smooth="yes"/>
    </contour>
  </outline>
</glyph>
<glyph name="R" format="1">
  <advance width="700"/>
  <unicode hex="0052"/>
  <outline>
    <contour>
      <point x="484" y="0" type="line"/>
      <point x="527" y="0" type="line"/>
      <point x="353" y="291" type="line"/>
      <point x="311" y="291" type="line"/>
    </contour>
    <component base="P"/>
    <contour>
      <point x="302" y="0" type="move" name="bottom"/>
    </contour>
    <contour>
      <point x="441" y="687" type="move" name="top"/>
    </contour>
  </outline>
</glyph>
<glyph name="U" format="1">
  <advance width="742"/>
  <unicode hex="0055"/>
  <outline>
    <contour>
      <point x="317" y="-12" type="curve" smooth="yes"/>
      <point x="471" y="-12"/>
      <point x="604" y="102"/>
      <point x="637" y="264" type="curve" smooth="yes"/>
      <point x="725" y="687" type="line"/>
      <point x="689" y="687" type="line"/>
      <point x="602" y="266" type="line" smooth="yes"/>
      <point x="573" y="125"/>
      <point x="455" y="24"/>
      <point x="319" y="24" type="curve" smooth="yes"/>
      <point x="185" y="24"/>
      <point x="112" y="123"/>
      <point x="141" y="264" type="curve" smooth="yes"/>
      <point x="229" y="687" type="line"/>
      <point x="193" y="687" type="line"/>
      <point x="106" y="266" type="line" smooth="yes"/>
      <point x="72" y="104"/>
      <point x="159" y="-12"/>
    </contour>
    <contour>
      <point x="326" y="0" type="move" name="bottom"/>
    </contour>
    <contour>
      <point x="454" y="687" type="move" name="top"/>
    </contour>
  </outline>
</glyph>
<glyph name="Y" format="1">
  <advance width="600"/>
  <unicode hex="0059"/>
  <outline>
    <contour>
      <point x="227" y="0" type="line"/>
      <point x="263" y="0" type="line"/>
      <point x="322" y="279" type="line"/>
      <point x="687" y="687" type="line"/>
      <point x="640" y="687" type="line"/>
      <point x="308" y="317" type="line"/>
      <point x="131" y="687" type="line"/>
      <point x="91" y="687" type="line"/>
      <point x="286" y="279" type="line"/>
    </contour>
    <contour>
      <point x="386" y="687" type="move" name="top"/>
    </contour>
  </outline>
</glyph>
<glyph name="bracketleft" format="1">
  <advance width="358"/>
  <unicode hex="005B"/>
  <outline>
    <contour>
      <point x="44" y="-115" type="line"/>
      <point x="265" y="-115" type="line"/>
      <point x="272" y="-79" type="line"/>
      <point x="87" y="-79" type="line"/>
      <point x="249" y="698" type="line"/>
      <point x="434" y="698" type="line"/>
      <point x="441" y="734" type="line"/>
      <point x="220" y="734" type="line"/>
    </contour>
  </outline>
</glyph>
<glyph name="grave" format="1">
  <advance width="243"/>
  <unicode hex="0060"/>
  <outline>
    <contour>
      <point x="226" y="576" type="line"/>
      <point x="273" y="576" type="line"/>
      <point x="177" y="718" type="line"/>
      <point x="135" y="709" type="line"/>
    </contour>
    <contour>
      <point x="234" y="517" type="move" name="_top"/>
    </contour>
    <contour>
      <point x="272" y="704" type="move" name="top"/>
    </contour>
  </outline>
</glyph>
<glyph name="a" format="1">
  <advance width="619"/>
  <unicode hex="0061"/>
  <outline>
    <component base="idotless" xOffset="383"/>
    <component base="lowercase_loop_reverse" xOffset="4"/>
    <contour>
      <point x="465" y="0" type="move" name="bottom"/>
    </contour>
    <contour>
      <point x="384" y="517" type="move" name="top"/>
    </contour>
  </outline>
</glyph>
<glyph name="c" format="1">
  <advance width="507"/>
  <unicode hex="0063"/>
  <outline>
    <contour>
      <point x="252" y="-12" type="curve" smooth="yes"/>
      <point x="312" y="-12"/>
      <point x="391" y="19"/>
      <point x="443" y="63" type="curve"/>
      <point x="421" y="90" type="line"/>
      <point x="375" y="51"/>
      <point x="305" y="24"/>
      <point x="254" y="24" type="curve" smooth="yes"/>
      <point x="150" y="24"/>
      <point x="77" y="96"/>
      <point x="77" y="198" type="curve" smooth="yes"/>
      <point x="77" y="358"/>
      <point x="205" y="493"/>
      <point x="357" y="493" type="curve" smooth="yes"/>
      <point x="408" y="493"/>
      <point x="464" y="466"/>
      <point x="493" y="429" type="curve"/>
      <point x="522" y="452" type="line"/>
      <point x="486" y="497"/>
      <point x="419" y="529"/>
      <point x="359" y="529" type="curve" smooth="yes"/>
      <point x="186" y="529"/>
      <point x="41" y="376"/>
      <point x="41" y="195" type="curve" smooth="yes"/>
      <point x="41" y="74"/>
      <point x="128" y="-12"/>
    </contour>
    <contour>
      <point x="250" y="0" type="move" name="bottom"/>
    </contour>
    <contour>
      <point x="351" y="517" type="move" name="top"/>
    </contour>
  </outline>
</glyph>
<glyph name="o" format="1">
  <advance width="625"/>
  <unicode hex="006F"/>
  <outline>
    <contour>
      <point x="259" y="-12" type="curve" smooth="yes"/>
      <point x="436" y="-12"/>
      <point x="585" y="136"/>
      <point x="585" y="311" type="curve" smooth="yes"/>
      <point x="585" y="429"/>
      <point x="485" y="529"/>
      <point x="366" y="529" type="curve" smooth="yes"/>
      <point x="188" y="529"/>
      <point x="39" y="382"/>
      <point x="39" y="207" type="curve" smooth="yes"/>
      <point x="39" y="88"/>
      <point x="140" y="-12"/>
    </contour>
    <contour>
      <point x="261" y="24" type="curve" smooth="yes"/>
      <point x="160" y="24"/>
      <point x="75" y="109"/>
      <point x="75" y="209" type="curve" smooth="yes"/>
      <point x="75" y="363"/>
      <point x="207" y="493"/>
      <point x="364" y="493" type="curve" smooth="yes"/>
      <point x="464" y="493"/>
      <point x="549" y="408"/>
      <point x="549" y="308" type="curve" smooth="yes"/>
      <point x="549" y="154"/>
      <point x="417" y="24"/>
    </contour>
    <contour>
      <point x="366" y="517" type="move" name="top"/>
    </contour>
  </outline>
</glyph>
<glyph name="r" format="1">
  <advance width="319"/>
  <unicode hex="0072"/>
  <outline>
    <component base="idotless"/>
    <component base="lowercase_r_shoulder" xOffset="62"/>
    <contour>
      <point x="148" y="0" type="move" name="bottom"/>
    </contour>
    <contour>
      <point x="253" y="517" type="move" name="top"/>
    </contour>
  </outline>
</glyph>
<glyph name="v" format="1">
  <advance width="496"/>
  <unicode hex="0076"/>
  <outline>
    <contour>
      <point x="183" y="0" type="line"/>
      <point x="205" y="0" type="line"/>
      <point x="550" y="517" type="line"/>
      <point x="509" y="517" type="line"/>
      <point x="205" y="61" type="line"/>
      <point x="91" y="517" type="line"/>
      <point x="54" y="517" type="line"/>
    </contour>
  </outline>
</glyph>
<glyph name="y" format="1">
  <advance width="500"/>
  <unicode hex="0079"/>
  <outline>
    <contour>
      <point x="14" y="-180" type="curve" smooth="yes"/>
      <point x="82" y="-180"/>
      <point x="140" y="-146"/>
      <point x="182" y="-77" type="curve" smooth="yes"/>
      <point x="548" y="517" type="line"/>
      <point x="509" y="517" type="line"/>
      <point x="204" y="25" type="line"/>
      <point x="97" y="517" type="line"/>
      <point x="58" y="517" type="line"/>
      <point x="176" y="-21" type="line"/>
      <point x="129" y="-93" type="line"/>
      <point x="105" y="-124"/>
      <point x="61" y="-144"/>
      <point x="16" y="-144" type="curve" smooth="yes"/>
      <point x="-8" y="-144"/>
      <point x="-31" y="-138"/>
      <point x="-52" y="-127" type="curve"/>
      <point x="-67" y="-162" type="line"/>
      <point x="-46" y="-173"/>
      <point x="-17" y="-180"/>
    </contour>
    <contour>
      <point x="307" y="517" type="move" name="top"/>
    </contour>
  </outline>
</glyph>
<glyph name="z" format="1">
  <advance width="456"/>
  <unicode hex="007A"/>
  <outline>
    <contour>
      <point x="-30" y="0" type="line"/>
      <point x="377" y="0" type="line"/>
      <point x="385" y="36" type="line"/>
      <point x="25" y="36" type="line"/>
      <point x="477" y="487" type="line"/>
      <point x="483" y="517" type="line"/>
      <point x="83" y="517" type="line"/>
      <point x="76" y="481" type="line"/>
      <point x="428" y="481" type="line"/>
      <point x="-25" y="30" type="line"/>
    </contour>
    <contour>
      <point x="282" y="517" type="move" name="top"/>
    </contour>
  </outline>
</glyph>
<glyph name="braceright" format="1">
  <advance width="335"/>
  <unicode hex="007D"/>
  <outline>
    <contour>
      <point x="-68" y="-166" type="line"/>
      <point x="67" y="-151"/>
      <point x="129" y="-104"/>
      <point x="151" y="2" type="curve" smooth="yes"/>
      <point x="180" y="143" type="line" smooth="yes"/>
      <point x="196" y="217"/>
      <point x="236" y="248"/>
      <point x="317" y="248" type="curve"/>
      <point x="321" y="284" type="line"/>
      <point x="255" y="284"/>
      <point x="226" y="303"/>
      <point x="226" y="350" type="curve" smooth="yes"/>
      <point x="226" y="385"/>
      <point x="265" y="525"/>
      <point x="265" y="574" type="curve" smooth="yes"/>
      <point x="265" y="648"/>
      <point x="217" y="684"/>
      <point x="108" y="697" type="curve"/>
      <point x="100" y="662" type="line"/>
      <point x="190" y="652"/>
      <point x="229" y="623"/>
      <point x="229" y="564" type="curve" smooth="yes"/>
      <point x="229" y="517"/>
      <point x="189" y="389"/>
      <point x="189" y="337" type="curve" smooth="yes"/>
      <point x="189" y="299"/>
      <point x="205" y="277"/>
      <point x="240" y="267" type="curve"/>
      <point x="185" y="251"/>
      <point x="160" y="219"/>
      <point x="146" y="152" type="curve" smooth="yes"/>
      <point x="117" y="9" type="line" smooth="yes"/>
      <point x="99" y="-78"/>
      <point x="45" y="-119"/>
      <point x="-68" y="-131" type="curve"/>
    </contour>
  </outline>
</glyph>
<glyph name="yen" format="1">
  <advance width="723"/>
  <unicode hex="00A5"/>
  <outline>
    <contour>
      <point x="107" y="131" type="line"/>
      <point x="563" y="131" type="line"/>
      <point x="570" y="167" type="line"/>
      <point x="114" y="167" type="line"/>
    </contour>
    <contour>
      <point x="137" y="278" type="line"/>
      <point x="593" y="278" type="line"/>
      <point x="601" y="314" type="line"/>
      <point x="145" y="314" type="line"/>
    </contour>
    <component base="Y" xOffset="-6"/>
  </outline>
</glyph>
<glyph name="dieresis" format="1">
  <advance width="416"/>
  <unicode hex="00A8"/>
  <outline>
    <contour>
      <point x="189" y="613" type="curve" smooth="yes"/>
      <point x="205" y="613"/>
      <point x="222" y="630"/>
      <point x="222" y="645" type="curve" smooth="yes"/>
      <point x="222" y="661"/>
      <point x="211" y="673"/>
      <point x="195" y="673" type="curve" smooth="yes"/>
      <point x="177" y="673"/>
      <point x="162" y="655"/>
      <point x="162" y="639" type="curve" smooth="yes"/>
      <point x="162" y="624"/>
      <point x="173" y="613"/>
    </contour>
    <contour>
      <point x="381" y="613" type="curve" smooth="yes"/>
      <point x="397" y="613"/>
      <point x="414" y="630"/>
      <point x="414" y="645" type="curve" smooth="yes"/>
      <point x="414" y="661"/>
      <point x="403" y="673"/>
      <point x="387" y="673" type="curve" smooth="yes"/>
      <point x="369" y="673"/>
      <point x="354" y="655"/>
      <point x="354" y="639" type="curve" smooth="yes"/>
      <point x="354" y="624"/>
      <point x="365" y="613"/>
    </contour>
    <contour>
      <point x="262" y="517" type="move" name="_top"/>
    </contour>
    <contour>
      <point x="301" y="704" type="move" name="top"/>
    </contour>
  </outline>
</glyph>
<glyph name="copyright" format="1">
  <advance width="953"/>
  <unicode hex="00A9"/>
  <outline>
    <contour>
      <point x="399" y="-116" type="curve" smooth="yes"/>
      <point x="626" y="-116"/>
      <point x="831" y="54"/>
      <point x="877" y="280" type="curve" smooth="yes"/>
      <point x="924" y="506"/>
      <point x="789" y="675"/>
      <point x="563" y="675" type="curve" smooth="yes"/>
      <point x="336" y="675"/>
      <point x="131" y="506"/>
      <point x="84" y="280" type="curve" smooth="yes"/>
      <point x="38" y="54"/>
      <point x="173" y="-116"/>
    </contour>
    <contour>
      <point x="406" y="-80" type="curve" smooth="yes"/>
      <point x="201" y="-80"/>
      <point x="78" y="74"/>
      <point x="120" y="280" type="curve" smooth="yes"/>
      <point x="162" y="485"/>
      <point x="349" y="639"/>
      <point x="556" y="639" type="curve" smooth="yes"/>
      <point x="761" y="639"/>
      <point x="883" y="485"/>
      <point x="841" y="280" type="curve" smooth="yes"/>
      <point x="799" y="74"/>
      <point x="613" y="-80"/>
    </contour>
    <contour>
      <point x="427" y="9" type="curve" smooth="yes"/>
      <point x="487" y="9"/>
      <point x="566" y="40"/>
      <point x="618" y="84" type="curve"/>
      <point x="596" y="111" type="line"/>
      <point x="550" y="72"/>
      <point x="480" y="45"/>
      <point x="429" y="45" type="curve" smooth="yes"/>
      <point x="325" y="45"/>
      <point x="252" y="117"/>
      <point x="252" y="219" type="curve" smooth="yes"/>
      <point x="252" y="379"/>
      <point x="380" y="514"/>
      <point x="532" y="514" type="curve" smooth="yes"/>
      <point x="583" y="514"/>
      <point x="639" y="487"/>
      <point x="668" y="450" type="curve"/>
      <point x="697" y="473" type="line"/>
      <point x="661" y="518"/>
      <point x="594" y="550"/>
      <point x="534" y="550" type="curve" smooth="yes"/>
      <point x="361" y="550"/>
      <point x="216" y="397"/>
      <point x="216" y="216" type="curve" smooth="yes"/>
      <point x="216" y="95"/>
      <point x="303" y="9"/>
    </contour>
  </outline>
</glyph>
<glyph name="macron" format="1">
  <advance width="494"/>
  <unicode hex="00AF"/>
  <outline>
    <contour>
      <point x="164" y="603" type="line"/>
      <point x="474" y="603" type="line"/>
      <point x="481" y="639" type="line"/>
      <point x="171" y="639" type="line"/>
    </contour>
    <contour>
      <point x="299" y="517" type="move" name="_top"/>
    </contour>
    <contour>
      <point x="337" y="704" type="move" name="top"/>
    </contour>
  </outline>
</glyph>
<glyph name="acute" format="1">
  <advance width="244"/>
  <unicode hex="00B4"/>
  <outline>
    <contour>
      <point x="102" y="576" type="line"/>
      <point x="151" y="576" type="line"/>
      <point x="296" y="709" type="line"/>
      <point x="256" y="718" type="line"/>
    </contour>
    <contour>
      <point x="116" y="517" type="move" name="_top"/>
    </contour>
    <contour>
      <point x="154" y="704" type="move" name="top"/>
    </contour>
  </outline>
</glyph>
<glyph name="periodcentered" format="1">
  <advance width="303"/>
  <unicode hex="00B7"/>
  <outline>
    <contour>
      <point x="151" y="241" type="curve" smooth="yes"/>
      <point x="166" y="241"/>
      <point x="181" y="255"/>
      <point x="181" y="272" type="curve" smooth="yes"/>
      <point x="181" y="286"/>
      <point x="171" y="296"/>
      <point x="156" y="296" type="curve" smooth="yes"/>
      <point x="139" y="296"/>
      <point x="125" y="281"/>
      <point x="125" y="265" type="curve" smooth="yes"/>
      <point x="125" y="251"/>
      <point x="135" y="241"/>
    </contour>
  </outline>
</glyph>
<glyph name="AE" format="1">
  <advance width="1013"/>
  <unicode hex="00C6"/>
  <outline>
    <contour>
      <point x="15" y="0" type="line"/>
      <point x="58" y="0" type="line"/>
      <point x="195" y="175" type="line"/>
      <point x="468" y="175" type="line"/>
      <point x="432" y="0" type="line"/>
      <point x="883" y="0" type="line"/>
      <point x="891" y="36" type="line"/>
      <point x="476" y="36" type="line"/>
      <point x="537" y="332" type="line"/>
      <point x="922" y="332" type="line"/>
      <point x="929" y="368" type="line"/>
      <point x="545" y="368" type="line"/>
      <point x="603" y="651" type="line"/>
      <point x="1019" y="651" type="line"/>
      <point x="1026" y="687" type="line"/>
      <point x="555" y="687" type="line"/>
    </contour>
    <contour>
      <point x="224" y="211" type="line"/>
      <point x="567" y="649" type="line"/>
      <point x="476" y="211" type="line"/>
    </contour>
    <contour>
      <point x="663" y="0" type="move" name="bottom"/>
    </contour>
  </outline>
</glyph>
<glyph name="Eth" format="1">
  <advance width="851"/>
  <unicode hex="00D0"/>
  <outline>
    <contour>
      <point x="88" y="332" type="line"/>
      <point x="436" y="332" type="line"/>
      <point x="444" y="368" type="line"/>
      <point x="95" y="368" type="line"/>
    </contour>
    <component base="D" xOffset="61"/>
  </outline>
</glyph>
<glyph name="Oslash" format="1">
  <advance width="880"/>
  <unicode hex="00D8"/>
  <outline>
    <contour>
      <point x="30" y="0" type="line"/>
      <point x="79" y="0" type="line"/>
      <point x="823" y="687" type="line"/>
      <point x="774" y="687" type="line"/>
    </contour>
    <component base="O" xOffset="8"/>
  </outline>
</glyph>
<glyph name="ae" format="1">
  <advance width="954"/>
  <unicode hex="00E6"/>
  <outline>
    <contour>
      <point x="184" y="-12" type="curve" smooth="yes"/>
      <point x="318" y="-12"/>
      <point x="431" y="81"/>
      <point x="459" y="215" type="curve"/>
      <point x="480" y="314" type="line" smooth="yes"/>
      <point x="506" y="439"/>
      <point x="448" y="529"/>
      <point x="323" y="529" type="curve" smooth="yes"/>
      <point x="270" y="529"/>
      <point x="200" y="513"/>
      <point x="136" y="480" type="curve"/>
      <point x="147" y="447" type="line"/>
      <point x="201" y="476"/>
      <point x="262" y="493"/>
      <point x="316" y="493" type="curve" smooth="yes"/>
      <point x="437" y="493"/>
      <point x="462" y="403"/>
      <point x="444" y="316" type="curve" smooth="yes"/>
      <point x="424" y="217" type="line"/>
      <point x="400" y="105"/>
      <point x="303" y="24"/>
      <point x="190" y="24" type="curve" smooth="yes"/>
      <point x="95" y="24"/>
      <point x="39" y="77"/>
      <point x="55" y="152" type="curve" smooth="yes"/>
      <point x="72" y="232"/>
      <point x="156" y="289"/>
      <point x="263" y="289" type="curve" smooth="yes"/>
      <point x="326" y="289"/>
      <point x="394" y="269"/>
      <point x="445" y="249" type="curve"/>
      <point x="449" y="283" type="line"/>
      <point x="393" y="307"/>
      <point x="323" y="325"/>
      <point x="260" y="325" type="curve" smooth="yes"/>
      <point x="137" y="325"/>
      <point x="41" y="255"/>
      <point x="20" y="157" type="curve" smooth="yes"/>
      <point x="-1" y="58"/>
      <point x="68" y="-12"/>
    </contour>
    <component base="e" xOffset="387"/>
  </outline>
</glyph>
<glyph name="divide" format="1">
  <advance width="588"/>
  <unicode hex="00F7"/>
  <outline>
    <contour>
      <point x="76" y="316" type="line"/>
      <point x="535" y="316" type="line"/>
      <point x="543" y="352" type="line"/>
      <point x="84" y="352" type="line"/>
    </contour>
    <contour>
      <point x="274" y="142" type="curve" smooth="yes"/>
      <point x="290" y="142"/>
      <point x="306" y="158"/>
      <point x="306" y="176" type="curve" smooth="yes"/>
      <point x="306" y="190"/>
      <point x="296" y="202"/>
      <point x="281" y="202" type="curve" smooth="yes"/>
      <point x="261" y="202"/>
      <point x="246" y="183"/>
      <point x="246" y="168" type="curve" smooth="yes"/>
      <point x="246" y="153"/>
      <point x="257" y="142"/>
    </contour>
    <contour>
      <point x="341" y="466" type="curve" smooth="yes"/>
      <point x="358" y="466"/>
      <point x="374" y="483"/>
      <point x="374" y="501" type="curve" smooth="yes"/>
      <point x="374" y="515"/>
      <point x="363" y="526"/>
      <point x="348" y="526" type="curve" smooth="yes"/>
      <point x="328" y="526"/>
      <point x="314" y="509"/>
      <point x="314" y="494" type="curve" smooth="yes"/>
      <point x="314" y="478"/>
      <point x="324" y="466"/>
    </contour>
  </outline>
</glyph>
<glyph name="idotless" format="1">
  <advance width="236"/>
  <unicode hex="0131"/>
  <outline>
    <contour>
      <point x="46" y="0" type="line"/>
      <point x="82" y="0" type="line"/>
      <point x="190" y="517" type="line"/>
      <point x="154" y="517" type="line"/>
    </contour>
    <contour>
      <point x="82" y="0" type="move" name="bottom"/>
    </contour>
    <contour>
      <point x="99" y="249" type="move" name="loop_left"/>
    </contour>
    <contour>
      <point x="142" y="288" type="move" name="r_shoulder"/>
    </contour>
    <contour>
      <point x="150" y="329" type="move" name="shoulder"/>
    </contour>
    <contour>
      <point x="172" y="517" type="move" name="top"/>
    </contour>
  </outline>
</glyph>
<glyph name="Lslash" format="1">
  <advance width="706"/>
  <unicode hex="0141"/>
  <outline>
    <contour>
      <point x="71" y="252" type="line"/>
      <point x="402" y="406" type="line"/>
      <point x="410" y="447" type="line"/>
      <point x="79" y="293" type="line"/>
    </contour>
    <component base="L" xOffset="87"/>
  </outline>
</glyph>
<glyph name="breve" format="1">
  <advance width="418"/>
  <unicode hex="02D8"/>
  <outline>
    <contour>
      <point x="278" y="589" type="curve" smooth="yes"/>
      <point x="329" y="589"/>
      <point x="386" y="608"/>
      <point x="434" y="648" type="curve"/>
      <point x="412" y="676" type="line"/>
      <point x="373" y="644"/>
      <point x="325" y="626"/>
      <point x="280" y="626" type="curve" smooth="yes"/>
      <point x="237" y="626"/>
      <point x="197" y="642"/>
      <point x="172" y="674" type="curve"/>
      <point x="142" y="650" type="line"/>
      <point x="175" y="610"/>
      <point x="223" y="589"/>
    </contour>
    <contour>
      <point x="260" y="517" type="move" name="_top"/>
    </contour>
    <contour>
      <point x="299" y="704" type="move" name="top"/>
    </contour>
  </outline>
</glyph>
<glyph name="dotaccent" format="1">
  <advance width="224"/>
  <unicode hex="02D9"/>
  <outline>
    <contour>
      <point x="189" y="613" type="curve" smooth="yes"/>
      <point x="205" y="613"/>
      <point x="222" y="630"/>
      <point x="222" y="645" type="curve" smooth="yes"/>
      <point x="222" y="661"/>
      <point x="211" y="673"/>
      <point x="195" y="673" type="curve" smooth="yes"/>
      <point x="177" y="673"/>
      <point x="162" y="655"/>
      <point x="162" y="639" type="curve" smooth="yes"/>
      <point x="162" y="624"/>
      <point x="173" y="613"/>
    </contour>
    <contour>
      <point x="166" y="517" type="move" name="_top"/>
    </contour>
    <contour>
      <point x="58" y="0" type="move" name="bottom"/>
    </contour>
    <contour>
      <point x="205" y="704" type="move" name="top"/>
    </contour>
  </outline>
</glyph>
<glyph name="ring" format="1">
  <advance width="344"/>
  <unicode hex="02DA"/>
  <outline>
    <contour>
      <point x="240" y="589" type="curve" smooth="yes"/>
      <point x="303" y="589"/>
      <point x="366" y="648"/>
      <point x="366" y="713" type="curve" smooth="yes"/>
      <point x="366" y="759"/>
      <point x="332" y="795"/>
      <point x="283" y="795" type="curve" smooth="yes"/>
      <point x="221" y="795"/>
      <point x="156" y="737"/>
      <point x="156" y="672" type="curve" smooth="yes"/>
      <point x="156" y="625"/>
      <point x="191" y="589"/>
    </contour>
    <contour>
      <point x="247" y="623" type="curve" smooth="yes"/>
      <point x="214" y="623"/>
      <point x="191" y="648"/>
      <point x="191" y="680" type="curve" smooth="yes"/>
      <point x="191" y="722"/>
      <point x="235" y="761"/>
      <point x="276" y="761" type="curve" smooth="yes"/>
      <point x="308" y="761"/>
      <point x="331" y="737"/>
      <point x="331" y="706" type="curve" smooth="yes"/>
      <point x="331" y="663"/>
      <point x="289" y="623"/>
    </contour>
    <contour>
      <point x="225" y="517" type="move" name="_top"/>
    </contour>
    <contour>
      <point x="264" y="704" type="move" name="top"/>
    </contour>
  </outline>
</glyph>
<glyph name="ogonek" format="1">
  <advance width="297"/>
  <unicode hex="02DB"/>
  <outline>
    <contour>
      <point x="83" y="-173" type="curve" smooth="yes"/>
      <point x="113" y="-173"/>
      <point x="146" y="-163"/>
      <point x="171" y="-145" type="curve"/>
      <point x="155" y="-113" type="line"/>
      <point x="139" y="-128"/>
      <point x="114" y="-137"/>
      <point x="89" y="-137" type="curve" smooth="yes"/>
      <point x="58" y="-137"/>
      <point x="36" y="-117"/>
      <point x="36" y="-88" type="curve" smooth="yes"/>
      <point x="36" y="-36"/>
      <point x="72" y="0"/>
      <point x="123" y="0" type="curve"/>
      <point x="100" y="21" type="line"/>
      <point x="44" y="14"/>
      <point x="0" y="-37"/>
      <point x="0" y="-94" type="curve" smooth="yes"/>
      <point x="0" y="-143"/>
      <point x="32" y="-173"/>
    </contour>
    <contour>
      <point x="123" y="0" type="move" name="_bottom"/>
    </contour>
  </outline>
</glyph>
<glyph name="commaaccentcomb" format="1">
  <advance width="232"/>
  <unicode hex="0326"/>
  <outline>
    <contour>
      <point x="-10" y="-269" type="line"/>
      <point x="46" y="-210"/>
      <point x="75" y="-162"/>
      <point x="75" y="-127" type="curve" smooth="yes"/>
      <point x="75" y="-108"/>
      <point x="64" y="-97"/>
      <point x="47" y="-97" type="curve" smooth="yes"/>
      <point x="28" y="-97"/>
      <point x="13" y="-113"/>
      <point x="13" y="-132" type="curve" smooth="yes"/>
      <point x="13" y="-147"/>
      <point x="23" y="-157"/>
      <point x="39" y="-156" type="curve"/>
      <point x="25" y="-184"/>
      <point x="-2" y="-218"/>
      <point x="-34" y="-248" type="curve"/>
    </contour>
    <contour>
      <point x="68" y="0" type="move" name="_bottom"/>
    </contour>
    <contour>
      <point x="173" y="517" type="move" name="_top"/>
    </contour>
  </outline>
</glyph>
<glyph name="bullet" format="1">
  <advance width="424"/>
  <unicode hex="2022"/>
  <outline>
    <contour>
      <point x="202" y="196" type="curve" smooth="yes"/>
      <point x="263" y="196"/>
      <point x="323" y="253"/>
      <point x="323" y="316" type="curve" smooth="yes"/>
      <point x="323" y="363"/>
      <point x="288" y="399"/>
      <point x="239" y="399" type="curve" smooth="yes"/>
      <point x="177" y="399"/>
      <point x="117" y="341"/>
      <point x="117" y="280" type="curve" smooth="yes"/>
      <point x="117" y="232"/>
      <point x="152" y="196"/>
    </contour>
  </outline>
</glyph>
<glyph name="perthousand" format="1">
  <advance width="1184"/>
  <unicode hex="2030"/>
  <outline>
    <contour>
      <point x="93" y="0" type="line"/>
      <point x="142" y="0" type="line"/>
      <point x="755" y="687" type="line"/>
      <point x="706" y="687" type="line"/>
    </contour>
    <contour>
      <point x="542" y="-10" type="curve" smooth="yes"/>
      <point x="647" y="-10"/>
      <point x="727" y="97"/>
      <point x="727" y="206" type="curve" smooth="yes"/>
      <point x="727" y="283"/>
      <point x="682" y="334"/>
      <point x="609" y="334" type="curve" smooth="yes"/>
      <point x="503" y="334"/>
      <point x="426" y="228"/>
      <point x="426" y="117" type="curve" smooth="yes"/>
      <point x="426" y="40"/>
      <point x="470" y="-10"/>
    </contour>
    <contour>
      <point x="545" y="26" type="curve" smooth="yes"/>
      <point x="493" y="26"/>
      <point x="462" y="64"/>
      <point x="462" y="121" type="curve" smooth="yes"/>
      <point x="462" y="209"/>
      <point x="523" y="298"/>
      <point x="606" y="298" type="curve" smooth="yes"/>
      <point x="659" y="298"/>
      <point x="691" y="260"/>
      <point x="691" y="202" type="curve" smooth="yes"/>
      <point x="691" y="119"/>
      <point x="630" y="26"/>
    </contour>
    <contour>
      <point x="235" y="349" type="curve" smooth="yes"/>
      <point x="341" y="349"/>
      <point x="420" y="458"/>
      <point x="420" y="565" type="curve" smooth="yes"/>
      <point x="420" y="635"/>
      <point x="380" y="693"/>
      <point x="302" y="693" type="curve" smooth="yes"/>
      <point x="197" y="693"/>
      <point x="118" y="585"/>
      <point x="118" y="476" type="curve" smooth="yes"/>
      <point x="118" y="399"/>
      <point x="163" y="349"/>
    </contour>
    <contour>
      <point x="238" y="385" type="curve" smooth="yes"/>
      <point x="186" y="385"/>
      <point x="154" y="423"/>
      <point x="154" y="480" type="curve" smooth="yes"/>
      <point x="154" y="563"/>
      <point x="215" y="657"/>
      <point x="299" y="657" type="curve" smooth="yes"/>
      <point x="355" y="657"/>
      <point x="383" y="615"/>
      <point x="383" y="560" type="curve" smooth="yes"/>
      <point x="383" y="477"/>
      <point x="322" y="385"/>
    </contour>
    <contour>
      <point x="923" y="-10" type="curve" smooth="yes"/>
      <point x="1028" y="-10"/>
      <point x="1108" y="97"/>
      <point x="1108" y="206" type="curve" smooth="yes"/>
      <point x="1108" y="283"/>
      <point x="1063" y="334"/>
      <point x="990" y="334" type="curve" smooth="yes"/>
      <point x="884" y="334"/>
      <point x="807" y="228"/>
      <point x="807" y="117" type="curve" smooth="yes"/>
      <point x="807" y="40"/>
      <point x="851" y="-10"/>
    </contour>
    <contour>
      <point x="926" y="26" type="curve" smooth="yes"/>
      <point x="874" y="26"/>
      <point x="843" y="64"/>
      <point x="843" y="121" type="curve" smooth="yes"/>
      <point x="843" y="209"/>
      <point x="904" y="298"/>
      <point x="987" y="298" type="curve" smooth="yes"/>
      <point x="1040" y="298"/>
      <point x="1072" y="260"/>
      <point x="1072" y="202" type="curve" smooth="yes"/>
      <point x="1072" y="119"/>
      <point x="1011" y="26"/>
    </contour>
  </outline>
</glyph>
<glyph name="ae_upper" format="1">
  <advance width="434"/>
  <outline>
    <contour>
      <point x="-63" y="0" type="line"/>
      <point x="-20" y="0" type="line"/>
      <point x="519" y="687" type="line"/>
      <point x="477" y="687" type="line"/>
    </contour>
    <contour>
      <point x="104" y="175" type="line"/>
      <point x="408" y="175" type="line"/>
      <point x="415" y="211" type="line"/>
      <point x="111" y="211" type="line"/>
    </contour>
    <contour>
      <point x="497" y="687" type="move" name="_ae_upper"/>
    </contour>
  </outline>
</glyph>
<glyph name="k_arms" format="1">
  <advance width="393"/>
  <outline>
    <contour>
      <point x="275" y="0" type="line"/>
      <point x="320" y="0" type="line"/>
      <point x="159" y="280" type="line"/>
      <point x="441" y="517" type="line"/>
      <point x="389" y="517" type="line"/>
      <point x="-14" y="177" type="line"/>
      <point x="-24" y="125" type="line"/>
      <point x="130" y="255" type="line"/>
    </contour>
    <contour>
      <point x="-24" y="125" type="move" name="k_arms"/>
    </contour>
  </outline>
</glyph>
<glyph name="lowercase_r_shoulder" format="1">
  <advance width="294"/>
  <outline>
    <contour>
      <point x="80" y="288" type="line"/>
      <point x="106" y="407"/>
      <point x="207" y="493"/>
      <point x="324" y="493" type="curve"/>
      <point x="329" y="529" type="line"/>
      <point x="222" y="529"/>
      <point x="113" y="471"/>
      <point x="89" y="360" type="curve"/>
    </contour>
    <contour>
      <point x="80" y="288" type="move" name="_r_shoulder"/>
    </contour>
  </outline>
</glyph>
